<?xml version="1.0" standalone="no"?>
<!DOCTYPE svg PUBLIC "-//W3C//DTD SVG 20010904//EN"
 "http://www.w3.org/TR/2001/REC-SVG-20010904/DTD/svg10.dtd">
<svg version="1.0" xmlns="http://www.w3.org/2000/svg"
 width="512.000000pt" height="512.000000pt" viewBox="0 0 512.000000 512.000000"
 preserveAspectRatio="xMidYMid meet">
<metadata>
Created by potrace 1.14, written by Peter Selinger 2001-2017
</metadata>
<g transform="translate(0.000000,512.000000) scale(0.100000,-0.100000)"
fill="#000000" stroke="none">
<path d="M3009 4855 c-106 -21 -168 -66 -280 -202 -89 -107 -110 -118 -244
-117 -60 0 -156 3 -213 6 -269 15 -444 -91 -521 -315 -11 -31 -22 -73 -25 -94
-4 -21 -8 -49 -11 -63 -2 -14 -7 -69 -10 -123 -3 -54 -13 -116 -21 -138 -27
-67 -90 -112 -212 -152 -153 -51 -192 -70 -249 -125 -131 -125 -153 -289 -79
-577 53 -202 52 -198 17 -228 -16 -13 -99 -59 -184 -100 -180 -89 -242 -138
-287 -231 -79 -162 -40 -315 146 -561 125 -166 135 -185 127 -226 -10 -51 -88
-124 -154 -143 -29 -9 -70 -16 -90 -16 -132 0 -208 -140 -135 -250 35 -53 81
-73 166 -72 271 2 514 213 543 473 13 109 -38 224 -181 414 -108 144 -137 195
-128 229 6 24 68 62 176 107 81 34 179 93 227 137 78 71 128 178 126 272 0 35
-12 125 -18 142 -2 7 -7 24 -9 38 -3 14 -16 70 -30 125 -14 55 -26 126 -26
157 0 49 3 59 26 77 14 11 51 27 82 36 146 41 242 90 323 166 96 91 153 211
164 349 12 140 16 177 26 230 6 30 18 67 27 82 31 54 61 57 372 45 142 -5 240
12 332 59 50 25 144 112 240 222 25 28 52 52 61 52 9 0 26 -14 39 -31 55 -74
115 -129 144 -131 118 -7 184 40 200 140 6 36 2 52 -25 105 -91 178 -257 267
-432 232z"/>
<path d="M3280 4299 c-408 -54 -777 -269 -1101 -641 -236 -270 -449 -665 -578
-1073 -40 -124 -78 -261 -87 -315 -3 -14 -9 -41 -14 -60 -5 -19 -11 -48 -14
-65 -3 -16 -10 -54 -16 -84 -19 -100 -46 -304 -55 -421 -2 -19 -6 -102 -9
-185 -15 -363 -19 -396 -55 -501 -46 -128 -150 -255 -252 -306 -92 -45 -103
-49 -164 -57 -228 -31 -429 76 -530 282 -63 130 -70 174 -70 437 0 216 9 422
20 474 2 11 7 52 10 91 4 38 8 72 10 75 1 3 6 30 9 61 7 61 7 62 32 184 95
480 255 860 502 1194 83 113 281 305 403 390 122 86 149 120 150 191 2 53 -15
88 -59 128 -37 33 -99 45 -147 29 -60 -20 -228 -143 -340 -249 -33 -31 -69
-65 -80 -75 -32 -29 -147 -163 -197 -228 -265 -352 -449 -791 -552 -1315 -14
-69 -28 -145 -31 -170 -3 -25 -8 -56 -10 -70 -9 -51 -14 -87 -20 -155 -4 -38
-8 -77 -10 -85 -16 -64 -26 -637 -13 -725 19 -124 64 -264 117 -360 267 -487
902 -587 1305 -206 138 132 241 333 273 536 2 17 6 41 9 55 2 14 6 86 9 160 8
232 15 374 19 400 3 14 7 57 11 95 42 445 209 998 401 1325 15 25 38 65 52 90
14 25 56 89 94 142 183 258 400 451 633 563 89 44 213 89 270 99 17 3 39 8 51
10 61 12 139 19 221 18 484 -3 920 -358 1158 -941 59 -146 96 -268 144 -482 4
-19 9 -71 10 -115 3 -114 -23 -181 -101 -256 -58 -56 -140 -102 -405 -224 -70
-33 -132 -62 -383 -181 -63 -30 -187 -89 -275 -130 -88 -42 -216 -102 -285
-135 -69 -33 -152 -73 -185 -88 -33 -15 -118 -56 -190 -90 -71 -34 -166 -79
-210 -100 -44 -20 -129 -61 -190 -90 -60 -29 -137 -65 -170 -80 -33 -15 -112
-53 -175 -83 -63 -30 -164 -78 -225 -107 -60 -28 -121 -61 -133 -73 -107 -99
-38 -280 106 -280 37 0 75 13 186 66 76 37 140 67 141 67 2 0 83 38 180 85 98
47 179 85 180 85 2 0 83 39 181 86 99 47 204 97 234 111 30 14 120 57 199 94
79 38 145 69 146 69 2 0 92 43 200 95 108 52 198 95 199 95 3 0 78 36 425 201
79 38 145 69 147 69 2 0 95 45 207 100 163 80 218 112 283 167 241 202 294
447 188 868 -176 696 -578 1221 -1092 1427 -94 37 -192 65 -291 82 -87 15
-307 18 -401 5z"/>
</g>
</svg>
